<?xml version="1.0" encoding="utf-8"?>
<!-- Generator: Adobe Illustrator 21.0.0, SVG Export Plug-In . SVG Version: 6.00 Build 0)  -->
<svg version="1.1" id="Layer_1" xmlns="http://www.w3.org/2000/svg" xmlns:xlink="http://www.w3.org/1999/xlink" x="0px" y="0px"
	 viewBox="0 0 279 90" enable-background="new 0 0 279 90" xml:space="preserve">
<g>
	<g>
		<defs>
			<rect id="SVGID_1_" x="0.055" y="0" width="278.945" height="90"/>
		</defs>
		<clipPath id="SVGID_2_">
			<use xlink:href="#SVGID_1_"  overflow="visible"/>
		</clipPath>
		<path clip-path="url(#SVGID_2_)" fill-rule="evenodd" clip-rule="evenodd" fill="#005CB9" d="M81.735,85.955
			c-3.66,4.679-10.751,3.984-12.916,3.848c-8.855-0.559-17.967-4.314-28.239-4.794C23.574,84.214,0,90,0,90
			s13.593-5.053,27.539-6.856L19.4,68.605l19.41,6.661c3.381,4.45,6.306,7.114,6.306,7.114s-2.368-2.555-5.204-6.735l7.352,2.523
			c2.322,3.352,4.244,5.381,4.244,5.381s-1.602-1.96-3.58-5.153l21.253,7.293C69.18,85.687,74.089,87.498,81.735,85.955
			L81.735,85.955z M60.052,0l-6.219,26.189L50.56,39.969c-0.187-0.176-1.043-0.904-2.346-0.846l0.395-14.188
			c2.481,0.058,4.381,0.863,5.216,1.286c-0.82-0.526-2.719-1.507-5.2-1.868L49.087,7.73L60.052,0L60.052,0z M48.19,39.997
			c1.309-0.547,2.173-0.128,2.367-0.016l-2.68,11.287L48.19,39.997L48.19,39.997z M36.751,72.395L21.302,66.32l-3.557-12.888
			l13.616,8.887C32.849,66.086,34.794,69.498,36.751,72.395L36.751,72.395z M45.805,75.956l-7.631-3.001
			c-1.653-2.689-3.335-5.831-4.708-9.263l8.884,5.798C43.402,71.874,44.615,74.058,45.805,75.956L45.805,75.956z M62.037,82.34
			l-15.351-6.037c-0.99-1.744-2.009-3.733-2.925-5.89L62.037,82.34L62.037,82.34z M30.142,58.782l-9.994-7.109l-0.315-13.36
			l8.9,9.583C28.566,51.686,29.132,55.348,30.142,58.782L30.142,58.782z M41.218,66.66l-8.978-6.386
			c-1.063-3.362-1.763-6.929-1.828-10.569l9.048,9.743C39.769,61.948,40.399,64.373,41.218,66.66L41.218,66.66z M55.775,77.015
			l-13.062-9.291c-0.754-2.122-1.373-4.362-1.748-6.656L55.775,77.015L55.775,77.015z M29.044,44.716l-6.453-7.534l2.945-13.039
			l6.409,11.631C30.421,38.782,29.497,41.778,29.044,44.716L29.044,44.716z M39.257,56.639L30.529,46.45
			c0.273-2.978,1.018-5.977,2.379-8.927l7.044,12.783C39.422,52.429,39.215,54.552,39.257,56.639L39.257,56.639z M50.993,70.341
			L40.635,58.247c-0.14-2.039-0.06-4.1,0.311-6.14L50.993,70.341L50.993,70.341z M33.366,33.25l-4.58-9.166l6.031-11.943
			l3.939,14.91C36.94,28.439,35.113,30.437,33.366,33.25L33.366,33.25z M40.692,47.913l-6.454-12.917l0.07-0.117
			c1.602-2.674,3.255-4.67,4.893-6.142l3.831,14.501c-0.361,0.56-0.728,1.191-1.102,1.902C41.445,46.06,41.035,46.985,40.692,47.913
			L40.692,47.913z M48.276,63.09L41.55,49.63c0.323-1.047,0.732-2.085,1.239-3.106c0.25-0.504,0.496-0.971,0.74-1.405L48.276,63.09
			L48.276,63.09z M40.504,25.892l-2.713-12.25l8.758-10.138l0.26,20.714C44.884,24.207,42.725,24.635,40.504,25.892L40.504,25.892z
			 M44.034,41.833l-3.191-14.41c2.106-1.481,4.147-2.166,5.976-2.396L47,39.395C46.122,39.745,45.12,40.475,44.034,41.833
			L44.034,41.833z M47.211,56.177l-2.779-12.547c0.939-1.421,1.811-2.346,2.584-2.937L47.211,56.177L47.211,56.177z"/>
	</g>
	<path fill-rule="evenodd" clip-rule="evenodd" fill="#00833E" d="M82.724,56.718l-0.259-4.151h-0.432
		c-0.057,0.086-0.202,0.172-0.519,0.172c-0.892,0-2.447-1.145-6.075-1.145c-6.018,0-10.336,4.008-10.336,9.561
		c0,5.296,4.203,9.132,10.048,9.132c3.397,0,4.665-1.031,6.507-0.773c0.691-1.116,1.468-2.891,1.843-4.179h-0.547
		c-1.958,3.463-4.751,4.236-7.025,4.236c-4.376,0-8.119-3.807-8.119-8.988c0-4.809,2.994-8.273,7.803-8.273
		c3.138,0,5.614,1.746,6.564,4.409H82.724L82.724,56.718z M277.645,69.284c-1.987,0-2.447-0.573-2.447-2.262V54.885
		c0-1.918,0.634-2.319,2.447-2.319v-0.544h-6.996v0.544c1.612,0.086,2.159,0.515,2.159,2.061v12.195
		c0,1.918-0.374,2.376-2.159,2.462v0.544h6.996V69.284L277.645,69.284z M262.25,53.053h5.01c1.151,0,1.67,0.658,2.102,3.177h0.519
		l-0.461-4.637h-0.547c-0.057,0.343-0.489,0.429-0.893,0.429h-13.848c-0.202,0-0.403-0.029-0.576-0.086
		c-0.173-0.057-0.288-0.172-0.317-0.343h-0.547l-0.461,4.637h0.518c0.432-2.519,0.95-3.177,2.102-3.177h5.01v14.141
		c0,1.546-0.518,2.09-2.274,2.09h-1.065v0.544h9.07v-0.544h-1.066c-1.756,0-2.274-0.544-2.274-2.09V53.053L262.25,53.053z
		 M240.632,65.477l0.604,4.351h0.489c0.115-0.172,0.317-0.315,0.576-0.315c0.403,0,2.418,0.773,4.002,0.773
		c3.369,0,5.874-2.09,5.874-4.896c0-5.267-9.242-6.355-9.242-10.419c0-1.603,1.325-2.691,3.225-2.691
		c1.986,0,3.829,1.317,4.635,3.378h0.49l-0.49-3.635h-0.461c-0.173,0.229-0.288,0.286-0.518,0.286c-1.008,0-1.497-0.715-3.915-0.715
		c-2.937,0-5.125,1.775-5.125,4.15c0,5.01,9.242,6.27,9.242,10.391c0,2.262-2.045,3.378-3.973,3.378
		c-2.246,0-4.261-1.489-4.866-4.036H240.632L240.632,65.477z M239.998,69.284c-1.986,0-2.447-0.573-2.447-2.262V54.885
		c0-1.918,0.634-2.319,2.447-2.319v-0.544h-6.996v0.544c1.612,0.086,2.159,0.515,2.159,2.061v12.195
		c0,1.918-0.375,2.376-2.159,2.462v0.544h6.996V69.284L239.998,69.284z M208.685,61.326v5.811c0,1.488-0.403,2.147-2.274,2.147
		h-0.893v0.544h8.148v-0.544h-0.288c-1.728,0-2.304-0.458-2.304-2.491v-11.88c0-1.775,0.461-2.29,2.188-2.347v-0.544h-7.399v0.544
		h0.547c1.784,0,2.274,0.573,2.274,2.09v5.639h-11.286v-4.981c0-2.204,0.345-2.748,2.39-2.748v-0.544h-6.853v0.544
		c1.584,0.115,2.073,0.544,2.073,2.032v12.595c0,1.631-0.576,2.09-2.275,2.09h-0.173v0.544h7.227v-0.544h-0.087
		c-1.929,0-2.303-0.659-2.303-2.519v-5.439H208.685L208.685,61.326z M191.762,56.718l-0.259-4.151h-0.432
		c-0.057,0.086-0.201,0.172-0.518,0.172c-0.892,0-2.447-1.145-6.075-1.145c-6.017,0-10.336,4.008-10.336,9.561
		c0,5.296,4.203,9.132,10.048,9.132c3.397,0,4.665-1.031,6.507-0.773c0.691-1.116,1.468-2.891,1.843-4.179h-0.547
		c-1.958,3.463-4.75,4.236-7.025,4.236c-4.376,0-8.119-3.807-8.119-8.988c0-4.809,2.994-8.273,7.803-8.273
		c3.138,0,5.614,1.746,6.564,4.409H191.762L191.762,56.718z M150.942,52.023v0.544c2.39,0.115,2.822,0.601,2.822,3.349v6.669
		c0,4.867-3.311,6.212-6.565,6.212c-4.29,0-6.565-2.319-6.565-6.183v-7.958c0-1.66,0.691-2.09,2.275-2.09h0.259v-0.544h-7.399v0.544
		c1.958,0.029,2.476,0.315,2.476,2.147v8.359c0,4.093,2.821,7.214,8.321,7.214c6.248,0,8.522-3.808,8.522-7.357V55.2
		c0-1.832,0.691-2.605,2.62-2.634v-0.544H150.942L150.942,52.023z M157.399,65.477l0.605,4.351h0.489
		c0.115-0.172,0.317-0.315,0.576-0.315c0.403,0,2.418,0.773,4.002,0.773c3.369,0,5.874-2.09,5.874-4.896
		c0-5.267-9.243-6.355-9.243-10.419c0-1.603,1.325-2.691,3.225-2.691c1.987,0,3.829,1.317,4.636,3.378h0.489l-0.489-3.635h-0.461
		c-0.173,0.229-0.288,0.286-0.518,0.286c-1.007,0-1.497-0.715-3.916-0.715c-2.937,0-5.125,1.775-5.125,4.15
		c0,5.01,9.242,6.27,9.242,10.391c0,2.262-2.044,3.378-3.973,3.378c-2.245,0-4.261-1.489-4.865-4.036H157.399L157.399,65.477z
		 M104.35,60.439c0-5.152-4.665-8.845-10.106-8.845c-6.133,0-10.538,4.036-10.538,9.733c0,5.353,4.751,8.96,10.394,8.96
		C99.686,70.286,104.35,66.221,104.35,60.439L104.35,60.439z M101.644,61.383c0,4.065-2.246,8.187-6.939,8.187
		c-4.635,0-8.292-3.778-8.292-9.131c0-3.435,2.015-8.13,7.083-8.13C98.246,52.309,101.644,56.059,101.644,61.383L101.644,61.383z
		 M125.881,62.071c0.864,0.172,1.584,0.229,2.447,0.229c4.261,0,6.967-2.118,6.967-5.467c0-2.204-1.382-5.067-7.399-5.067
		c-0.777,0-2.159,0.029-3.57,0.086c-1.411,0.057-2.487,0.143-3.293,0.172v0.544h1.105c1.007,0,1.353,0.458,1.353,1.517v13.54
		c0,1.345-0.179,1.656-1.676,1.656v0.548h7.136v-0.544h-0.767c-1.814,0-2.303-0.601-2.303-2.205V62.071L125.881,62.071z
		 M125.881,52.424c0.691-0.115,1.325-0.115,1.987-0.115c3.829,0,4.722,2.204,4.722,4.437c0,2.891-2.015,5.009-5.154,5.009
		c-0.547,0-1.181-0.143-1.555-0.228V52.424L125.881,52.424z M273.029,41.144l-2.966-4.552c-0.556-0.848-0.463-1.198,0.983-1.198
		v-0.35h-4.931v0.35c1.205,0.037,1.631,0.295,2.539,1.714l3.299,5.123v2.599c0,0.903-0.334,1.327-1.483,1.327h-0.352v0.35h5.098
		v-0.35h-0.241c-1.131,0-1.483-0.387-1.483-1.364v-2.764l3.077-5.179c0.519-0.866,1.057-1.364,2.317-1.456v-0.35h-4.189v0.35
		c1.186,0,1.538,0.313,0.945,1.327L273.029,41.144L273.029,41.144z M198.24,46.636V36.352c0-0.719,0.297-0.958,1.687-0.958v-0.35
		h-4.338v0.35c1.483,0.037,1.817,0.24,1.817,1.364v7.335l-8.731-9.049h-2.91v0.35c0.649,0.018,1.131,0.166,1.557,0.461v9.068
		c0,0.848-0.371,1.235-1.52,1.235l-0.074,0.35h4.3v-0.35c-1.575,0-1.872-0.277-1.872-1.604v-7.906l9.602,9.989H198.24L198.24,46.636
		z M180.884,35.044v0.35c1.539,0.074,1.817,0.387,1.817,2.156v4.294c0,3.133-2.132,3.999-4.227,3.999
		c-2.762,0-4.226-1.493-4.226-3.981v-5.124c0-1.069,0.445-1.345,1.464-1.345h0.167v-0.35h-4.764v0.35
		c1.26,0.018,1.594,0.203,1.594,1.382v5.382c0,2.635,1.816,4.644,5.357,4.644c4.023,0,5.487-2.451,5.487-4.737v-4.976
		c0-1.179,0.445-1.677,1.687-1.695v-0.35H180.884L180.884,35.044z M204.996,46.157c-1.279,0-1.575-0.369-1.575-1.456v-7.814
		c0-1.235,0.408-1.493,1.575-1.493v-0.35h-4.504v0.35c1.038,0.055,1.39,0.332,1.39,1.327v7.851c0,1.235-0.241,1.53-1.39,1.585v0.35
		h4.504V46.157L204.996,46.157z M105.897,40.609l-1.632-4.294l-1.575,4.294H105.897L105.897,40.609z M93.618,41.291l-2.947,3.52
		c-0.723,0.866-0.668,1.345,0.556,1.345h0.371v0.35h-4.412v-0.35c1.297-0.111,1.798-0.424,3.096-1.972l2.873-3.446l-2.873-3.594
		c-1.149-1.438-1.631-1.714-3.096-1.751v-0.35h5.524v0.35c-1.631-0.019-1.706,0.387-1.131,1.106l2.521,3.096l2.002-2.377
		c1.112-1.308,1.075-1.825,0.074-1.825h-0.538v-0.35h4.449v0.35c-1.223,0-2.076,0.571-3.151,1.88l-2.373,2.894
		c0,0,2.899,4.159,4.38,5.386c0.031,0.016,0.3,0.323,0.611,0.337c0.427,0.021,0.567-0.68,0.892-1.558l3.374-9.16l-0.167-0.405h1.613
		l3.874,10.229c0.371,0.977,0.76,1.161,1.687,1.161v0.35h-5.098v-0.35h0.482c1.056,0,1.446-0.111,1.446-0.627
		c0-0.295-0.13-0.572-0.204-0.756l-1.242-3.354h-3.837l-1.075,2.893c-0.13,0.35-0.371,0.903-0.371,1.161
		c0,0.498,0.482,0.682,1.501,0.682h0.297v0.35h-1.861h-2.421H95.75v-0.35c1.298,0,1.594-0.314,0.649-1.456L93.618,41.291
		L93.618,41.291z M85.078,38.858h-0.352c-0.093,1.069-0.408,1.382-1.075,1.382h-3.318v-4.534h3.911c0.667,0,1.131,0.332,1.371,1.898
		h0.334l-0.148-2.562h-8.898v0.35h0.408c1.242,0,1.483,0.442,1.483,1.474v7.777c0,1.106-0.26,1.511-1.742,1.511h-0.519v0.35h9.842
		l0.297-2.746h-0.334c-0.463,1.585-0.853,2.083-2.15,2.083h-2.855c-0.686,0-1.001-0.166-1.001-1.014v-3.926h3.133
		c0.76,0,1.112,0.147,1.26,1.456h0.352V38.858L85.078,38.858z M111.151,43.706l0.389,2.801h0.315
		c0.074-0.111,0.204-0.203,0.371-0.203c0.259,0,1.557,0.498,2.576,0.498c2.169,0,3.782-1.346,3.782-3.152
		c0-3.391-5.951-4.091-5.951-6.708c0-1.032,0.853-1.733,2.076-1.733c1.28,0,2.466,0.848,2.985,2.175h0.315l-0.315-2.341h-0.297
		c-0.111,0.147-0.185,0.184-0.334,0.184c-0.648,0-0.964-0.461-2.521-0.461c-1.891,0-3.299,1.143-3.299,2.672
		c0,3.225,5.95,4.036,5.95,6.69c0,1.456-1.316,2.175-2.558,2.175c-1.446,0-2.744-0.958-3.133-2.598H111.151L111.151,43.706z
		 M156.112,46.507l4.616-9.839l0.575,8.27c0.074,0.979-0.779,1.219-1.649,1.219v0.35h4.764v-0.35c-1.353,0-1.501,0-1.613-1.699
		l-0.593-8.363c-0.037-0.628,0.315-0.646,1.223-0.72v-0.332h-2.725l-4.449,9.304l-4.467-9.304h-2.799v0.332
		c1.15,0.074,1.187,0.406,1.112,1.625l-0.445,7.181c-0.093,1.68-0.26,1.976-1.613,1.976v0.35h3.855v-0.35
		c-0.834-0.037-1.538-0.24-1.482-1.182l0.5-8.307l4.764,9.839H156.112L156.112,46.507z M132.544,41.42l1.242,3.354
		c0.074,0.184,0.204,0.461,0.204,0.756c0,0.516-0.39,0.627-1.446,0.627h-0.482v0.35h5.098v-0.35c-0.927,0-1.316-0.184-1.687-1.161
		l-3.874-10.229h-1.613l0.167,0.405l-3.374,9.16c-0.593,1.604-0.797,1.806-2.002,1.825v0.35h4.282v-0.35h-0.297
		c-1.019,0-1.501-0.184-1.501-0.682c0-0.258,0.241-0.811,0.371-1.161l1.075-2.893H132.544L132.544,41.42z M132.228,40.609h-3.207
		l1.576-4.294L132.228,40.609L132.228,40.609z M71.441,35.707h3.226c0.741,0,1.075,0.424,1.353,2.046h0.334l-0.297-2.985h-0.352
		c-0.037,0.221-0.315,0.276-0.575,0.276h-8.916c-0.13,0-0.26-0.019-0.371-0.055c-0.111-0.037-0.185-0.111-0.204-0.221h-0.352
		l-0.297,2.985h0.334c0.278-1.622,0.611-2.046,1.353-2.046h3.226v9.104c0,0.995-0.334,1.345-1.465,1.345h-0.686v0.35h5.839v-0.35
		h-0.686c-1.131,0-1.465-0.35-1.465-1.345V35.707L71.441,35.707z M145.233,39.482v0.43h0.36c0.36,0,0.552,0.048,0.552,0.286
		c0,0.238-0.72,1.503-1.968,3.102c-0.888-1.313-1.512-1.981-2.448-2.839c0.72-0.406,1.681-0.954,1.681-2.076
		c0-1.05-1.08-1.694-2.304-1.694c-1.32,0-2.4,0.692-2.4,2.076c0,0.907,0.527,1.527,1.151,2.195c-1.128,0.406-2.784,1.002-2.784,3.15
		c0,2.148,1.776,2.673,2.687,2.673c1.32,0,2.713-1.169,3.48-1.814c0.384,0.644,1.08,1.814,2.28,1.814
		c0.863,0,1.776-0.597,2.208-0.883l-0.24-0.381c-0.36,0.214-0.672,0.405-1.056,0.405c-0.648,0-1.392-1.193-2.016-2.219
		c0.408-0.525,1.392-1.766,2.136-3.198c0.264-0.501,0.456-0.621,1.584-0.596v-0.43H145.233L145.233,39.482z M141.321,40.102
		c-0.864-0.74-1.224-1.098-1.224-1.909c0-0.62,0.36-1.169,0.912-1.169c0.385,0,1.008,0.31,1.008,1.456
		C142.017,39.362,141.657,39.744,141.321,40.102L141.321,40.102z M140.193,41.319c2.016,2.052,2.232,2.267,2.784,3.269
		c-0.529,0.477-1.321,1.193-2.305,1.193c-1.128,0-1.943-0.835-1.943-2.028C138.729,42.393,139.737,41.653,140.193,41.319
		L140.193,41.319z M212.346,46.802l3.818-9.823c0.445-1.143,0.945-1.585,1.909-1.585v-0.35h-4.301v0.35
		c1.261,0,1.724,0.221,1.724,0.774c0,0.258-0.111,0.627-0.315,1.143l-2.929,7.611l-3.336-8.256
		c-0.353-0.848,0.055-1.235,1.761-1.272v-0.35h-5.098v0.35c1.131,0,1.353,0.276,1.817,1.438l4.022,9.971H212.346L212.346,46.802z
		 M226.856,38.858h-0.352c-0.093,1.069-0.408,1.382-1.075,1.382h-3.318v-4.534h3.911c0.667,0,1.13,0.332,1.372,1.898h0.334
		l-0.148-2.562h-8.898v0.35h0.408c1.242,0,1.483,0.442,1.483,1.474v7.777c0,1.106-0.26,1.511-1.742,1.511h-0.519v0.35h9.843
		l0.297-2.746h-0.334c-0.463,1.585-0.853,2.083-2.15,2.083h-2.855c-0.686,0-1.001-0.166-1.001-1.014v-3.926h3.133
		c0.76,0,1.112,0.147,1.26,1.456h0.352V38.858L226.856,38.858z M253.707,46.157c-1.279,0-1.576-0.369-1.576-1.456v-7.814
		c0-1.235,0.408-1.493,1.576-1.493v-0.35h-4.504v0.35c1.038,0.055,1.39,0.332,1.39,1.327v7.851c0,1.235-0.241,1.53-1.39,1.585v0.35
		h4.504V46.157L253.707,46.157z M260.652,35.707h3.225c0.741,0,1.075,0.424,1.353,2.046h0.334l-0.297-2.985h-0.352
		c-0.037,0.221-0.315,0.276-0.575,0.276h-8.916c-0.13,0-0.26-0.019-0.371-0.055c-0.111-0.037-0.185-0.111-0.204-0.221h-0.352
		l-0.297,2.985h0.334c0.278-1.622,0.611-2.046,1.353-2.046h3.225v9.104c0,0.995-0.334,1.345-1.465,1.345h-0.686v0.35h5.839v-0.35
		h-0.685c-1.131,0-1.465-0.35-1.465-1.345V35.707L260.652,35.707z M114.689,61.47c2.307-0.706,3.738-2.486,3.738-4.601
		c0-2.914-2.391-5.085-7.719-5.085c-1.872,0-2.448,0.028-3.629,0.086c-1.181,0.057-2.938,0.172-3.629,0.172v0.543h0.634
		c1.67,0,2.16,0.514,2.16,2.286v12.028c0,1.914-0.605,2.371-2.304,2.371h-0.489v0.543h8.151v-0.543h-0.663
		c-1.613,0-2.304-0.428-2.304-2.142v-4.828c0.461,0.029,0.835,0.057,1.469,0.057c0.772,0,1.698-0.027,2.452-0.125
		c0.252,0.373,0.543,0.787,0.821,1.245l1.386,2.287c0.494,0.815,0.926,1.51,1.387,2.11c0,0,1.48,1.957,5.74,1.957l-0.004-0.55
		c-2.282,0.07-3.718-2.176-3.718-2.176S116.04,63.565,114.689,61.47L114.689,61.47z M108.634,52.383
		c0.519-0.057,0.893-0.057,1.44-0.057c4.436,0,5.646,2.057,5.646,4.714c0,3.429-2.103,4.771-5.3,4.771
		c-0.662,0-1.094,0.029-1.786-0.057V52.383L108.634,52.383z M226.009,61.47c2.308-0.706,3.738-2.486,3.738-4.601
		c0-2.914-2.391-5.085-7.719-5.085c-1.872,0-2.448,0.028-3.628,0.086c-1.181,0.057-2.938,0.172-3.629,0.172v0.543h0.634
		c1.67,0,2.16,0.514,2.16,2.286v12.028c0,1.914-0.605,2.371-2.304,2.371h-0.489v0.543h8.151v-0.543h-0.662
		c-1.613,0-2.304-0.428-2.304-2.142v-4.828c0.461,0.029,0.835,0.057,1.469,0.057c0.772,0,1.698-0.027,2.452-0.125
		c0.251,0.373,0.543,0.787,0.821,1.245l1.385,2.287c0.494,0.815,0.927,1.51,1.388,2.11c0,0,1.48,1.957,5.74,1.957l-0.003-0.55
		c-2.282,0.07-3.718-2.176-3.718-2.176S227.361,63.565,226.009,61.47L226.009,61.47z M219.955,52.383
		c0.518-0.057,0.893-0.057,1.44-0.057c4.436,0,5.646,2.057,5.646,4.714c0,3.429-2.103,4.771-5.3,4.771
		c-0.663,0-1.094,0.029-1.786-0.057V52.383L219.955,52.383z M241.38,43.538l0.389,2.801h0.315c0.074-0.111,0.204-0.203,0.371-0.203
		c0.259,0,1.557,0.498,2.576,0.498c2.169,0,3.782-1.346,3.782-3.152c0-3.391-5.951-4.092-5.951-6.708
		c0-1.032,0.853-1.733,2.076-1.733c1.279,0,2.466,0.848,2.985,2.175h0.315l-0.315-2.341h-0.297
		c-0.111,0.148-0.185,0.184-0.334,0.184c-0.649,0-0.964-0.461-2.521-0.461c-1.891,0-3.299,1.143-3.299,2.672
		c0,3.225,5.95,4.036,5.95,6.69c0,1.456-1.316,2.175-2.558,2.175c-1.446,0-2.744-0.958-3.133-2.598H241.38L241.38,43.538z
		 M236.333,41.12c1.49-0.455,2.413-1.605,2.413-2.971c0-1.881-1.543-3.283-4.984-3.283c-1.209,0-1.581,0.018-2.343,0.055
		c-0.762,0.037-1.897,0.111-2.343,0.111v0.35h0.409c1.078,0,1.394,0.332,1.394,1.476v7.766c0,1.236-0.391,1.531-1.488,1.531h-0.316
		v0.351h5.263v-0.351h-0.428c-1.042,0-1.488-0.276-1.488-1.383v-3.118c0.298,0.019,0.539,0.037,0.948,0.037
		c0.499,0,1.097-0.017,1.583-0.081c0.163,0.241,0.351,0.508,0.53,0.803l0.895,1.476c0.319,0.526,0.598,0.975,0.896,1.362
		c0,0,0.956,1.263,3.706,1.263l-0.002-0.355c-1.473,0.045-2.4-1.405-2.4-1.405S237.205,42.473,236.333,41.12L236.333,41.12z
		 M232.424,35.253c0.334-0.037,0.576-0.037,0.93-0.037c2.864,0,3.645,1.328,3.645,3.044c0,2.214-1.357,3.081-3.422,3.081
		c-0.427,0-0.707,0.018-1.153-0.037V35.253L232.424,35.253z"/>
	<g>
		<path fill="none" stroke="#00833E" stroke-width="0.5" stroke-miterlimit="3.8637" d="M82.724,56.718l-0.259-4.151h-0.432
			c-0.057,0.086-0.202,0.172-0.519,0.172c-0.892,0-2.447-1.145-6.075-1.145c-6.018,0-10.336,4.008-10.336,9.561
			c0,5.296,4.203,9.132,10.048,9.132c3.397,0,4.665-1.031,6.507-0.773c0.691-1.116,1.468-2.891,1.843-4.179h-0.547
			c-1.958,3.463-4.751,4.236-7.025,4.236c-4.376,0-8.119-3.807-8.119-8.988c0-4.809,2.994-8.273,7.803-8.273
			c3.138,0,5.614,1.746,6.564,4.409H82.724L82.724,56.718z M277.645,69.284c-1.987,0-2.447-0.573-2.447-2.262V54.885
			c0-1.918,0.634-2.319,2.447-2.319v-0.544h-6.996v0.544c1.612,0.086,2.159,0.515,2.159,2.061v12.195
			c0,1.918-0.374,2.376-2.159,2.462v0.544h6.996V69.284L277.645,69.284z M262.25,53.053h5.01c1.151,0,1.67,0.658,2.102,3.177h0.519
			l-0.461-4.637h-0.547c-0.057,0.343-0.489,0.429-0.893,0.429h-13.848c-0.202,0-0.403-0.029-0.576-0.086
			c-0.173-0.057-0.288-0.172-0.317-0.343h-0.547l-0.461,4.637h0.518c0.432-2.519,0.95-3.177,2.102-3.177h5.01v14.141
			c0,1.546-0.518,2.09-2.274,2.09h-1.065v0.544h9.07v-0.544h-1.066c-1.756,0-2.274-0.544-2.274-2.09V53.053L262.25,53.053z
			 M240.632,65.477l0.604,4.351h0.489c0.115-0.172,0.317-0.315,0.576-0.315c0.403,0,2.418,0.773,4.002,0.773
			c3.369,0,5.874-2.09,5.874-4.896c0-5.267-9.242-6.355-9.242-10.419c0-1.603,1.325-2.691,3.225-2.691
			c1.986,0,3.829,1.317,4.635,3.378h0.49l-0.49-3.635h-0.461c-0.173,0.229-0.288,0.286-0.518,0.286
			c-1.008,0-1.497-0.715-3.915-0.715c-2.937,0-5.125,1.775-5.125,4.15c0,5.01,9.242,6.27,9.242,10.391
			c0,2.262-2.045,3.378-3.973,3.378c-2.246,0-4.261-1.489-4.866-4.036H240.632L240.632,65.477z M239.998,69.284
			c-1.986,0-2.447-0.573-2.447-2.262V54.885c0-1.918,0.634-2.319,2.447-2.319v-0.544h-6.996v0.544
			c1.612,0.086,2.159,0.515,2.159,2.061v12.195c0,1.918-0.375,2.376-2.159,2.462v0.544h6.996V69.284L239.998,69.284z
			 M208.685,61.326v5.811c0,1.488-0.403,2.147-2.274,2.147h-0.893v0.544h8.148v-0.544h-0.288c-1.728,0-2.304-0.458-2.304-2.491
			v-11.88c0-1.775,0.461-2.29,2.188-2.347v-0.544h-7.399v0.544h0.547c1.784,0,2.274,0.573,2.274,2.09v5.639h-11.286v-4.981
			c0-2.204,0.345-2.748,2.39-2.748v-0.544h-6.853v0.544c1.584,0.115,2.073,0.544,2.073,2.032v12.595c0,1.631-0.576,2.09-2.275,2.09
			h-0.173v0.544h7.227v-0.544h-0.087c-1.929,0-2.303-0.659-2.303-2.519v-5.439H208.685L208.685,61.326z M191.762,56.718
			l-0.259-4.151h-0.432c-0.057,0.086-0.201,0.172-0.518,0.172c-0.892,0-2.447-1.145-6.075-1.145c-6.017,0-10.336,4.008-10.336,9.561
			c0,5.296,4.203,9.132,10.048,9.132c3.397,0,4.665-1.031,6.507-0.773c0.691-1.116,1.468-2.891,1.843-4.179h-0.547
			c-1.958,3.463-4.75,4.236-7.025,4.236c-4.376,0-8.119-3.807-8.119-8.988c0-4.809,2.994-8.273,7.803-8.273
			c3.138,0,5.614,1.746,6.564,4.409H191.762L191.762,56.718z M150.942,52.023v0.544c2.39,0.115,2.822,0.601,2.822,3.349v6.669
			c0,4.867-3.311,6.212-6.565,6.212c-4.29,0-6.565-2.319-6.565-6.183v-7.958c0-1.66,0.691-2.09,2.275-2.09h0.259v-0.544h-7.399
			v0.544c1.958,0.029,2.476,0.315,2.476,2.147v8.359c0,4.093,2.821,7.214,8.321,7.214c6.248,0,8.522-3.808,8.522-7.357V55.2
			c0-1.832,0.691-2.605,2.62-2.634v-0.544H150.942L150.942,52.023z M157.399,65.477l0.605,4.351h0.489
			c0.115-0.172,0.317-0.315,0.576-0.315c0.403,0,2.418,0.773,4.002,0.773c3.369,0,5.874-2.09,5.874-4.896
			c0-5.267-9.243-6.355-9.243-10.419c0-1.603,1.325-2.691,3.225-2.691c1.987,0,3.829,1.317,4.636,3.378h0.489l-0.489-3.635h-0.461
			c-0.173,0.229-0.288,0.286-0.518,0.286c-1.007,0-1.497-0.715-3.916-0.715c-2.937,0-5.125,1.775-5.125,4.15
			c0,5.01,9.242,6.27,9.242,10.391c0,2.262-2.044,3.378-3.973,3.378c-2.245,0-4.261-1.489-4.865-4.036H157.399L157.399,65.477z
			 M104.35,60.439c0-5.152-4.665-8.845-10.106-8.845c-6.133,0-10.538,4.036-10.538,9.733c0,5.353,4.751,8.96,10.394,8.96
			C99.686,70.286,104.35,66.221,104.35,60.439L104.35,60.439z M101.644,61.383c0,4.065-2.246,8.187-6.939,8.187
			c-4.635,0-8.292-3.778-8.292-9.131c0-3.435,2.015-8.13,7.083-8.13C98.246,52.309,101.644,56.059,101.644,61.383L101.644,61.383z
			 M125.881,62.071c0.864,0.172,1.584,0.229,2.447,0.229c4.261,0,6.967-2.118,6.967-5.467c0-2.204-1.382-5.067-7.399-5.067
			c-0.777,0-2.159,0.029-3.57,0.086c-1.411,0.057-2.487,0.143-3.293,0.172v0.544h1.105c1.007,0,1.353,0.458,1.353,1.517v13.54
			c0,1.345-0.179,1.656-1.676,1.656v0.548h7.136v-0.544h-0.767c-1.814,0-2.303-0.601-2.303-2.205V62.071L125.881,62.071z
			 M125.881,52.424c0.691-0.115,1.325-0.115,1.987-0.115c3.829,0,4.722,2.204,4.722,4.437c0,2.891-2.015,5.009-5.154,5.009
			c-0.547,0-1.181-0.143-1.555-0.228V52.424L125.881,52.424z M273.029,41.144l-2.966-4.552c-0.556-0.848-0.463-1.198,0.983-1.198
			v-0.35h-4.931v0.35c1.205,0.037,1.631,0.295,2.539,1.714l3.299,5.123v2.599c0,0.903-0.334,1.327-1.483,1.327h-0.352v0.35h5.098
			v-0.35h-0.241c-1.131,0-1.483-0.387-1.483-1.364v-2.764l3.077-5.179c0.519-0.866,1.057-1.364,2.317-1.456v-0.35h-4.189v0.35
			c1.186,0,1.538,0.313,0.945,1.327L273.029,41.144L273.029,41.144z M198.24,46.636V36.352c0-0.719,0.297-0.958,1.687-0.958v-0.35
			h-4.338v0.35c1.483,0.037,1.817,0.24,1.817,1.364v7.335l-8.731-9.049h-2.91v0.35c0.649,0.018,1.131,0.166,1.557,0.461v9.068
			c0,0.848-0.371,1.235-1.52,1.235l-0.074,0.35h4.3v-0.35c-1.575,0-1.872-0.277-1.872-1.604v-7.906l9.602,9.989H198.24
			L198.24,46.636z M180.884,35.044v0.35c1.539,0.074,1.817,0.387,1.817,2.156v4.294c0,3.133-2.132,3.999-4.227,3.999
			c-2.762,0-4.226-1.493-4.226-3.981v-5.124c0-1.069,0.445-1.345,1.464-1.345h0.167v-0.35h-4.764v0.35
			c1.26,0.018,1.594,0.203,1.594,1.382v5.382c0,2.635,1.816,4.644,5.357,4.644c4.023,0,5.487-2.451,5.487-4.737v-4.976
			c0-1.179,0.445-1.677,1.687-1.695v-0.35H180.884L180.884,35.044z M204.996,46.157c-1.279,0-1.575-0.369-1.575-1.456v-7.814
			c0-1.235,0.408-1.493,1.575-1.493v-0.35h-4.504v0.35c1.038,0.055,1.39,0.332,1.39,1.327v7.851c0,1.235-0.241,1.53-1.39,1.585v0.35
			h4.504V46.157L204.996,46.157z M105.897,40.609l-1.632-4.294l-1.575,4.294H105.897L105.897,40.609z M93.618,41.291l-2.947,3.52
			c-0.723,0.866-0.668,1.345,0.556,1.345h0.371v0.35h-4.412v-0.35c1.297-0.111,1.798-0.424,3.096-1.972l2.873-3.446l-2.873-3.594
			c-1.149-1.438-1.631-1.714-3.096-1.751v-0.35h5.524v0.35c-1.631-0.019-1.706,0.387-1.131,1.106l2.521,3.096l2.002-2.377
			c1.112-1.308,1.075-1.825,0.074-1.825h-0.538v-0.35h4.449v0.35c-1.223,0-2.076,0.571-3.151,1.88l-2.373,2.894
			c0,0,2.899,4.159,4.38,5.386c0.031,0.016,0.3,0.323,0.611,0.337c0.427,0.021,0.567-0.68,0.892-1.558l3.374-9.16l-0.167-0.405
			h1.613l3.874,10.229c0.371,0.977,0.76,1.161,1.687,1.161v0.35h-5.098v-0.35h0.482c1.056,0,1.446-0.111,1.446-0.627
			c0-0.295-0.13-0.572-0.204-0.756l-1.242-3.354h-3.837l-1.075,2.893c-0.13,0.35-0.371,0.903-0.371,1.161
			c0,0.498,0.482,0.682,1.501,0.682h0.297v0.35h-1.861h-2.421H95.75v-0.35c1.298,0,1.594-0.314,0.649-1.456L93.618,41.291
			L93.618,41.291z M85.078,38.858h-0.352c-0.093,1.069-0.408,1.382-1.075,1.382h-3.318v-4.534h3.911
			c0.667,0,1.131,0.332,1.371,1.898h0.334l-0.148-2.562h-8.898v0.35h0.408c1.242,0,1.483,0.442,1.483,1.474v7.777
			c0,1.106-0.26,1.511-1.742,1.511h-0.519v0.35h9.842l0.297-2.746h-0.334c-0.463,1.585-0.853,2.083-2.15,2.083h-2.855
			c-0.686,0-1.001-0.166-1.001-1.014v-3.926h3.133c0.76,0,1.112,0.147,1.26,1.456h0.352V38.858L85.078,38.858z M111.151,43.706
			l0.389,2.801h0.315c0.074-0.111,0.204-0.203,0.371-0.203c0.259,0,1.557,0.498,2.576,0.498c2.169,0,3.782-1.346,3.782-3.152
			c0-3.391-5.951-4.091-5.951-6.708c0-1.032,0.853-1.733,2.076-1.733c1.28,0,2.466,0.848,2.985,2.175h0.315l-0.315-2.341h-0.297
			c-0.111,0.147-0.185,0.184-0.334,0.184c-0.648,0-0.964-0.461-2.521-0.461c-1.891,0-3.299,1.143-3.299,2.672
			c0,3.225,5.95,4.036,5.95,6.69c0,1.456-1.316,2.175-2.558,2.175c-1.446,0-2.744-0.958-3.133-2.598H111.151L111.151,43.706z
			 M156.112,46.507l4.616-9.839l0.575,8.27c0.074,0.979-0.779,1.219-1.649,1.219v0.35h4.764v-0.35c-1.353,0-1.501,0-1.613-1.699
			l-0.593-8.363c-0.037-0.628,0.315-0.646,1.223-0.72v-0.332h-2.725l-4.449,9.304l-4.467-9.304h-2.799v0.332
			c1.15,0.074,1.187,0.406,1.112,1.625l-0.445,7.181c-0.093,1.68-0.26,1.976-1.613,1.976v0.35h3.855v-0.35
			c-0.834-0.037-1.538-0.24-1.482-1.182l0.5-8.307l4.764,9.839H156.112L156.112,46.507z M132.544,41.42l1.242,3.354
			c0.074,0.184,0.204,0.461,0.204,0.756c0,0.516-0.39,0.627-1.446,0.627h-0.482v0.35h5.098v-0.35c-0.927,0-1.316-0.184-1.687-1.161
			l-3.874-10.229h-1.613l0.167,0.405l-3.374,9.16c-0.593,1.604-0.797,1.806-2.002,1.825v0.35h4.282v-0.35h-0.297
			c-1.019,0-1.501-0.184-1.501-0.682c0-0.258,0.241-0.811,0.371-1.161l1.075-2.893H132.544L132.544,41.42z M132.228,40.609h-3.207
			l1.576-4.294L132.228,40.609L132.228,40.609z M71.441,35.707h3.226c0.741,0,1.075,0.424,1.353,2.046h0.334l-0.297-2.985h-0.352
			c-0.037,0.221-0.315,0.276-0.575,0.276h-8.916c-0.13,0-0.26-0.019-0.371-0.055c-0.111-0.037-0.185-0.111-0.204-0.221h-0.352
			l-0.297,2.985h0.334c0.278-1.622,0.611-2.046,1.353-2.046h3.226v9.104c0,0.995-0.334,1.345-1.465,1.345h-0.686v0.35h5.839v-0.35
			h-0.686c-1.131,0-1.465-0.35-1.465-1.345V35.707L71.441,35.707z M145.233,39.482v0.43h0.36c0.36,0,0.552,0.048,0.552,0.286
			c0,0.238-0.72,1.503-1.968,3.102c-0.888-1.313-1.512-1.981-2.448-2.839c0.72-0.406,1.681-0.954,1.681-2.076
			c0-1.05-1.08-1.694-2.304-1.694c-1.32,0-2.4,0.692-2.4,2.076c0,0.907,0.527,1.527,1.151,2.195
			c-1.128,0.406-2.784,1.002-2.784,3.15c0,2.148,1.776,2.673,2.687,2.673c1.32,0,2.713-1.169,3.48-1.814
			c0.384,0.644,1.08,1.814,2.28,1.814c0.863,0,1.776-0.597,2.208-0.883l-0.24-0.381c-0.36,0.214-0.672,0.405-1.056,0.405
			c-0.648,0-1.392-1.193-2.016-2.219c0.408-0.525,1.392-1.766,2.136-3.198c0.264-0.501,0.456-0.621,1.584-0.596v-0.43H145.233
			L145.233,39.482z M141.321,40.102c-0.864-0.74-1.224-1.098-1.224-1.909c0-0.62,0.36-1.169,0.912-1.169
			c0.385,0,1.008,0.31,1.008,1.456C142.017,39.362,141.657,39.744,141.321,40.102L141.321,40.102z M140.193,41.319
			c2.016,2.052,2.232,2.267,2.784,3.269c-0.529,0.477-1.321,1.193-2.305,1.193c-1.128,0-1.943-0.835-1.943-2.028
			C138.729,42.393,139.737,41.653,140.193,41.319L140.193,41.319z M212.346,46.802l3.818-9.823c0.445-1.143,0.945-1.585,1.909-1.585
			v-0.35h-4.301v0.35c1.261,0,1.724,0.221,1.724,0.774c0,0.258-0.111,0.627-0.315,1.143l-2.929,7.611l-3.336-8.256
			c-0.353-0.848,0.055-1.235,1.761-1.272v-0.35h-5.098v0.35c1.131,0,1.353,0.276,1.817,1.438l4.022,9.971H212.346L212.346,46.802z
			 M226.856,38.858h-0.352c-0.093,1.069-0.408,1.382-1.075,1.382h-3.318v-4.534h3.911c0.667,0,1.13,0.332,1.372,1.898h0.334
			l-0.148-2.562h-8.898v0.35h0.408c1.242,0,1.483,0.442,1.483,1.474v7.777c0,1.106-0.26,1.511-1.742,1.511h-0.519v0.35h9.843
			l0.297-2.746h-0.334c-0.463,1.585-0.853,2.083-2.15,2.083h-2.855c-0.686,0-1.001-0.166-1.001-1.014v-3.926h3.133
			c0.76,0,1.112,0.147,1.26,1.456h0.352V38.858L226.856,38.858z M253.707,46.157c-1.279,0-1.576-0.369-1.576-1.456v-7.814
			c0-1.235,0.408-1.493,1.576-1.493v-0.35h-4.504v0.35c1.038,0.055,1.39,0.332,1.39,1.327v7.851c0,1.235-0.241,1.53-1.39,1.585v0.35
			h4.504V46.157L253.707,46.157z M260.652,35.707h3.225c0.741,0,1.075,0.424,1.353,2.046h0.334l-0.297-2.985h-0.352
			c-0.037,0.221-0.315,0.276-0.575,0.276h-8.916c-0.13,0-0.26-0.019-0.371-0.055c-0.111-0.037-0.185-0.111-0.204-0.221h-0.352
			l-0.297,2.985h0.334c0.278-1.622,0.611-2.046,1.353-2.046h3.225v9.104c0,0.995-0.334,1.345-1.465,1.345h-0.686v0.35h5.839v-0.35
			h-0.685c-1.131,0-1.465-0.35-1.465-1.345V35.707L260.652,35.707z M114.689,61.47c2.307-0.706,3.738-2.486,3.738-4.601
			c0-2.914-2.391-5.085-7.719-5.085c-1.872,0-2.448,0.028-3.629,0.086c-1.181,0.057-2.938,0.172-3.629,0.172v0.543h0.634
			c1.67,0,2.16,0.514,2.16,2.286v12.028c0,1.914-0.605,2.371-2.304,2.371h-0.489v0.543h8.151v-0.543h-0.663
			c-1.613,0-2.304-0.428-2.304-2.142v-4.828c0.461,0.029,0.835,0.057,1.469,0.057c0.772,0,1.698-0.027,2.452-0.125
			c0.252,0.373,0.543,0.787,0.821,1.245l1.386,2.287c0.494,0.815,0.926,1.51,1.387,2.11c0,0,1.48,1.957,5.74,1.957l-0.004-0.55
			c-2.282,0.07-3.718-2.176-3.718-2.176S116.04,63.565,114.689,61.47L114.689,61.47z M108.634,52.383
			c0.519-0.057,0.893-0.057,1.44-0.057c4.436,0,5.646,2.057,5.646,4.714c0,3.429-2.103,4.771-5.3,4.771
			c-0.662,0-1.094,0.029-1.786-0.057V52.383L108.634,52.383z M226.009,61.47c2.308-0.706,3.738-2.486,3.738-4.601
			c0-2.914-2.391-5.085-7.719-5.085c-1.872,0-2.448,0.028-3.628,0.086c-1.181,0.057-2.938,0.172-3.629,0.172v0.543h0.634
			c1.67,0,2.16,0.514,2.16,2.286v12.028c0,1.914-0.605,2.371-2.304,2.371h-0.489v0.543h8.151v-0.543h-0.662
			c-1.613,0-2.304-0.428-2.304-2.142v-4.828c0.461,0.029,0.835,0.057,1.469,0.057c0.772,0,1.698-0.027,2.452-0.125
			c0.251,0.373,0.543,0.787,0.821,1.245l1.385,2.287c0.494,0.815,0.927,1.51,1.388,2.11c0,0,1.48,1.957,5.74,1.957l-0.003-0.55
			c-2.282,0.07-3.718-2.176-3.718-2.176S227.361,63.565,226.009,61.47L226.009,61.47z M219.955,52.383
			c0.518-0.057,0.893-0.057,1.44-0.057c4.436,0,5.646,2.057,5.646,4.714c0,3.429-2.103,4.771-5.3,4.771
			c-0.663,0-1.094,0.029-1.786-0.057V52.383L219.955,52.383z M241.38,43.538l0.389,2.801h0.315c0.074-0.111,0.204-0.203,0.371-0.203
			c0.259,0,1.557,0.498,2.576,0.498c2.169,0,3.782-1.346,3.782-3.152c0-3.391-5.951-4.092-5.951-6.708
			c0-1.032,0.853-1.733,2.076-1.733c1.279,0,2.466,0.848,2.985,2.175h0.315l-0.315-2.341h-0.297
			c-0.111,0.148-0.185,0.184-0.334,0.184c-0.649,0-0.964-0.461-2.521-0.461c-1.891,0-3.299,1.143-3.299,2.672
			c0,3.225,5.95,4.036,5.95,6.69c0,1.456-1.316,2.175-2.558,2.175c-1.446,0-2.744-0.958-3.133-2.598H241.38L241.38,43.538z
			 M236.333,41.12c1.49-0.455,2.413-1.605,2.413-2.971c0-1.881-1.543-3.283-4.984-3.283c-1.209,0-1.581,0.018-2.343,0.055
			c-0.762,0.037-1.897,0.111-2.343,0.111v0.35h0.409c1.078,0,1.394,0.332,1.394,1.476v7.766c0,1.236-0.391,1.531-1.488,1.531h-0.316
			v0.351h5.263v-0.351h-0.428c-1.042,0-1.488-0.276-1.488-1.383v-3.118c0.298,0.019,0.539,0.037,0.948,0.037
			c0.499,0,1.097-0.017,1.583-0.081c0.163,0.241,0.351,0.508,0.53,0.803l0.895,1.476c0.319,0.526,0.598,0.975,0.896,1.362
			c0,0,0.956,1.263,3.706,1.263l-0.002-0.355c-1.473,0.045-2.4-1.405-2.4-1.405S237.205,42.473,236.333,41.12L236.333,41.12z
			 M232.424,35.253c0.334-0.037,0.576-0.037,0.93-0.037c2.864,0,3.645,1.328,3.645,3.044c0,2.214-1.357,3.081-3.422,3.081
			c-0.427,0-0.707,0.018-1.153-0.037V35.253L232.424,35.253z"/>
	</g>
</g>
</svg>
