<?xml version="1.0" encoding="utf-8"?>
<!-- Generator: Adobe Illustrator 25.0.0, SVG Export Plug-In . SVG Version: 6.00 Build 0)  -->
<svg version="1.1" id="Layer_2" xmlns="http://www.w3.org/2000/svg" xmlns:xlink="http://www.w3.org/1999/xlink" x="0px" y="0px"
	 viewBox="0 0 83.2 90" style="enable-background:new 0 0 83.2 90;" xml:space="preserve">
<style type="text/css">
	.st0{fill-rule:evenodd;clip-rule:evenodd;fill:#FFFFFF;}
</style>
<path class="st0" d="M81.7,86c-3.7,4.7-10.8,4-12.9,3.8c-8.9-0.6-18-4.3-28.2-4.8C23.6,84.2,0,90,0,90s13.6-5.1,27.5-6.9l-8.1-14.5
	l19.4,6.7c3.4,4.4,6.3,7.1,6.3,7.1s-2.4-2.6-5.2-6.7l7.4,2.5c2.3,3.4,4.2,5.4,4.2,5.4s-1.6-2-3.6-5.2l21.3,7.3
	C69.2,85.7,74.1,87.5,81.7,86L81.7,86z M60.1,0l-6.2,26.2L50.6,40c-0.2-0.2-1-0.9-2.3-0.8l0.4-14.2c2.5,0.1,4.4,0.9,5.2,1.3
	c-0.8-0.5-2.7-1.5-5.2-1.9l0.5-16.6L60.1,0L60.1,0z M48.2,40c1.3-0.5,2.2-0.1,2.4,0l-2.7,11.3L48.2,40L48.2,40z M36.8,72.4
	l-15.4-6.1l-3.6-12.9l13.6,8.9C32.8,66.1,34.8,69.5,36.8,72.4L36.8,72.4z M45.8,76l-7.6-3c-1.7-2.7-3.3-5.8-4.7-9.3l8.9,5.8
	C43.4,71.9,44.6,74.1,45.8,76L45.8,76z M62,82.3l-15.4-6c-1-1.7-2-3.7-2.9-5.9L62,82.3L62,82.3z M30.1,58.8l-10-7.1l-0.3-13.4
	l8.9,9.6C28.6,51.7,29.1,55.3,30.1,58.8L30.1,58.8z M41.2,66.7l-9-6.4c-1.1-3.4-1.8-6.9-1.8-10.6l9,9.7
	C39.8,61.9,40.4,64.4,41.2,66.7L41.2,66.7z M55.8,77l-13.1-9.3c-0.8-2.1-1.4-4.4-1.7-6.7L55.8,77L55.8,77z M29,44.7l-6.5-7.5l2.9-13
	l6.4,11.6C30.4,38.8,29.5,41.8,29,44.7L29,44.7z M39.3,56.6l-8.7-10.2c0.3-3,1-6,2.4-8.9l7,12.8C39.4,52.4,39.2,54.6,39.3,56.6
	L39.3,56.6z M51,70.3L40.6,58.2c-0.1-2-0.1-4.1,0.3-6.1L51,70.3L51,70.3z M33.4,33.2l-4.6-9.2l6-11.9l3.9,14.9
	C36.9,28.4,35.1,30.4,33.4,33.2L33.4,33.2z M40.7,47.9L34.2,35l0.1-0.1c1.6-2.7,3.3-4.7,4.9-6.1L43,43.2c-0.4,0.6-0.7,1.2-1.1,1.9
	C41.4,46.1,41,47,40.7,47.9L40.7,47.9z M48.3,63.1l-6.7-13.5c0.3-1,0.7-2.1,1.2-3.1c0.2-0.5,0.5-1,0.7-1.4L48.3,63.1L48.3,63.1z
	 M40.5,25.9l-2.7-12.2l8.8-10.1l0.3,20.7C44.9,24.2,42.7,24.6,40.5,25.9L40.5,25.9z M44,41.8l-3.2-14.4c2.1-1.5,4.1-2.2,6-2.4
	L47,39.4C46.1,39.7,45.1,40.5,44,41.8L44,41.8z M47.2,56.2l-2.8-12.5c0.9-1.4,1.8-2.3,2.6-2.9L47.2,56.2L47.2,56.2z"/>
</svg>
